<?xml version="1.0" standalone="no"?>
<!DOCTYPE svg PUBLIC "-//W3C//DTD SVG 20010904//EN"
 "http://www.w3.org/TR/2001/REC-SVG-20010904/DTD/svg10.dtd">
<svg version="1.0" xmlns="http://www.w3.org/2000/svg"
 width="178.000000pt" height="178.000000pt" viewBox="0 0 178.000000 178.000000"
 preserveAspectRatio="xMidYMid meet">
<metadata>
Created by potrace 1.11, written by Peter Selinger 2001-2013
</metadata>
<g transform="translate(0.000000,178.000000) scale(0.100000,-0.100000)"
fill="#000000" stroke="none">
<path d="M792 1760 c-41 -25 -56 -63 -42 -103 8 -25 7 -32 -9 -43 -11 -8 -36
-36 -56 -64 -20 -28 -45 -50 -55 -50 -9 0 -35 -8 -56 -17 -22 -9 -42 -16 -45
-15 -3 0 -12 -10 -19 -24 -8 -14 -20 -22 -27 -19 -8 2 -12 1 -9 -3 3 -5 -2
-28 -10 -52 -33 -96 17 -191 127 -239 41 -18 48 -26 54 -58 8 -45 32 -93 45
-93 6 0 10 -4 10 -8 0 -14 -76 -5 -144 18 -72 24 -165 84 -212 137 -28 33 -34
35 -68 29 -70 -13 -150 -126 -131 -186 17 -54 221 -172 335 -195 68 -14 98
-18 110 -17 33 4 43 -13 33 -59 -18 -85 -4 -201 27 -234 11 -12 21 -32 22 -45
3 -22 -1 -25 -32 -26 -41 0 -104 31 -125 62 -13 20 -12 24 14 45 16 13 38 40
49 59 19 31 20 36 6 51 -9 10 -22 15 -29 13 -9 -4 -12 1 -11 13 4 24 -12 43
-30 36 -8 -3 -23 -22 -34 -42 -12 -22 -19 -29 -20 -18 0 21 -26 23 -34 1 -18
-47 2 -114 39 -134 13 -7 26 -22 29 -34 7 -26 43 -66 75 -85 25 -14 103 -17
122 -5 12 7 29 -13 29 -36 0 -11 -3 -11 -12 -2 -7 7 -28 12 -49 12 -95 0 -192
-149 -149 -229 14 -27 64 -45 88 -32 16 9 23 7 35 -13 36 -54 137 -72 212 -37
47 21 104 75 125 117 8 16 23 39 33 51 14 15 19 36 18 80 l0 58 37 1 c20 1 43
3 51 5 9 3 15 -7 18 -26 10 -77 44 -129 102 -160 36 -18 65 -13 99 18 12 11
38 22 57 24 67 5 133 55 160 120 19 44 19 110 1 144 -7 14 -16 36 -19 50 -7
27 -91 92 -142 110 -29 11 -36 19 -44 59 -15 71 -48 153 -81 202 -32 46 -38
78 -17 78 25 0 140 51 195 86 113 73 212 201 198 258 -9 38 -65 95 -102 105
-37 10 -73 -4 -89 -34 -50 -97 -160 -204 -259 -251 -38 -19 -72 -32 -74 -30
-2 3 9 24 26 48 40 59 78 135 91 186 9 31 17 42 31 42 48 0 100 51 100 98 0
48 -69 95 -120 82 -21 -6 -33 2 -80 50 -62 64 -120 98 -183 106 -34 5 -46 12
-60 35 -15 27 -51 49 -80 49 -7 0 -27 -9 -45 -20z"/>
</g>
</svg>
